<svg t="1614173176658" class="icon" viewBox="0 0 1024 1024" version="1.1" xmlns="http://www.w3.org/2000/svg" p-id="2173" width="200" height="200"><path d="M512 1014.784c-4.608 0-9.728-1.024-13.824-3.584L25.088 762.368c-9.728-5.12-15.872-15.36-15.872-26.624V39.424c0-8.192 3.072-15.36 8.704-20.992 5.632-5.632 13.312-8.704 20.992-8.704 4.608 0 9.728 1.024 13.824 3.584L512 254.464l458.752-241.664c4.096-2.048 9.216-3.584 13.824-3.584 11.264 0 21.504 6.144 26.624 15.872 2.048 4.096 3.584 9.216 3.584 13.824v696.832c0 11.264-6.144 20.992-15.872 26.624l-472.576 248.832c-4.608 2.048-9.728 3.584-14.336 3.584z m0-64l442.88-232.96V88.576l-429.056 225.792c-4.096 2.048-9.216 3.584-13.824 3.584-4.608 0-9.728-1.024-13.824-3.584L69.12 88.576v629.248l442.88 232.96z" p-id="2174" fill="#2c2c2c"></path><path d="M362.496 793.088c-16.384 0-29.696-13.312-29.696-29.696V365.568c0-16.384 13.312-29.696 29.696-29.696 16.384 0 29.696 13.312 29.696 29.696v398.336c0.512 15.872-12.8 29.184-29.696 29.184z m286.208-74.24c-16.384 0-29.696-13.312-29.696-29.696 0-11.264 6.144-21.504 15.872-26.624l211.456-111.104c4.096-2.048 9.216-3.584 13.824-3.584 11.264 0 21.504 6.144 26.624 15.872 7.68 14.336 2.048 32.768-12.288 40.448l-211.456 111.104c-4.608 2.048-9.216 3.584-14.336 3.584z m-435.2-17.408c-16.384 0-29.696-13.312-29.696-29.696V273.408c0-16.384 13.312-29.696 29.696-29.696 16.384 0 29.696 13.312 29.696 29.696v398.336c0 16.384-13.312 29.696-29.696 29.696z m435.2-231.424c-16.384 0-29.696-13.312-29.696-29.696 0-11.264 6.144-21.504 15.872-26.624L846.336 302.08c4.096-2.048 9.216-3.584 13.824-3.584 11.264 0 20.992 6.144 26.112 15.872v0.512c3.584 7.168 4.096 14.848 2.048 22.528-2.56 7.68-7.68 13.824-14.848 17.408L662.016 465.92c-3.584 2.56-8.192 4.096-13.312 4.096z" p-id="2175" fill="#2c2c2c"></path></svg>