<svg t="1612772570352" class="icon" viewBox="0 0 1024 1024" version="1.1" xmlns="http://www.w3.org/2000/svg" p-id="4524" width="200" height="200"><path d="M832 174.933333c2.133333 6.4 2.133333 12.8 2.133333 19.2V832c0 36.266667-27.733333 64-64 64H253.866667c-6.4 0-12.8-2.133333-19.2-2.133333 8.533333 25.6 32 44.8 61.866666 44.8h516.266667c36.266667 0 64-27.733333 64-64V234.666667c0-27.733333-19.2-51.2-44.8-59.733334z m-40.533333 612.266667V149.333333c0-36.266667-27.733333-64-64-64H211.2c-36.266667 0-64 27.733333-64 64v637.866667c0 36.266667 27.733333 64 64 64h516.266667c36.266667 0 64-27.733333 64-64zM661.333333 605.866667H277.333333c-12.8 0-21.333333-8.533333-21.333333-21.333334s8.533333-21.333333 21.333333-21.333333h384c12.8 0 21.333333 8.533333 21.333334 21.333333s-8.533333 21.333333-21.333334 21.333334z m0-230.4H277.333333c-12.8 0-21.333333-8.533333-21.333333-21.333334s8.533333-21.333333 21.333333-21.333333h384c12.8 0 21.333333 8.533333 21.333334 21.333333s-8.533333 21.333333-21.333334 21.333334z" p-id="4525" fill="#1296db"></path></svg>